<svg xmlns="http://www.w3.org/2000/svg" viewBox="0 0 14 12">
  <path fill-rule="evenodd" clip-rule="evenodd" d="M2.602 2.155v2.79h3.716v-2.79c0-.398.078-.697.235-.896A.747.747 0 0 1 7.17.96c.26 0 .469.098.63.295.16.197.24.497.24.9v7.67c0 .403-.081.704-.244.903a.771.771 0 0 1-.626.3.742.742 0 0 1-.62-.303c-.155-.201-.232-.501-.232-.9V6.551H2.602v3.274c0 .403-.081.704-.244.903a.771.771 0 0 1-.626.3.742.742 0 0 1-.62-.303c-.155-.201-.232-.501-.232-.9v-7.67c0-.398.076-.697.229-.896.153-.2.36-.299.623-.299.26 0 .469.098.63.295.16.197.24.497.24.9Zm7.804 5.308c.198-.237.413-.412.645-.525a1.75 1.75 0 0 1 .78-.17c.275 0 .53.051.764.154.234.104.438.251.614.442s.311.416.407.676c.096.26.144.53.144.813 0 .411-.094.785-.281 1.12a2.004 2.004 0 0 1-.784.785 2.289 2.289 0 0 1-1.139.282c-.488 0-.909-.12-1.263-.359-.354-.239-.625-.592-.812-1.06-.187-.468-.281-1.04-.281-1.717 0-.55.057-1.043.17-1.478.113-.434.276-.794.488-1.08.211-.286.468-.502.77-.647a2.346 2.346 0 0 1 1.033-.219c.371 0 .699.073.982.219.283.145.496.326.64.542.144.216.216.423.216.62a.47.47 0 0 1-.135.327.447.447 0 0 1-.345.146.56.56 0 0 1-.34-.116.67.67 0 0 1-.23-.321.915.915 0 0 0-.318-.422.832.832 0 0 0-.505-.16.904.904 0 0 0-.46.134c-.152.089-.28.209-.385.36-.212.31-.337.86-.375 1.654Zm1.176 2.736c.293 0 .536-.12.728-.36.191-.241.287-.557.287-.948 0-.265-.045-.493-.135-.684a1.02 1.02 0 0 0-.37-.437.94.94 0 0 0-.519-.151c-.18 0-.351.048-.516.144a1.067 1.067 0 0 0-.396.418c-.1.182-.15.396-.15.64 0 .394.102.722.305.984.203.263.458.394.766.394Z"/>
</svg>
