<svg xmlns="http://www.w3.org/2000/svg" viewBox="0 0 14 12">
  <path fill-rule="evenodd" clip-rule="evenodd" d="M2.682 2.155v2.79h3.716v-2.79c0-.398.078-.697.235-.896A.747.747 0 0 1 7.25.96c.26 0 .469.098.63.295.16.197.24.497.24.9v7.67c0 .403-.081.704-.244.903a.771.771 0 0 1-.626.3.742.742 0 0 1-.62-.303c-.155-.201-.232-.501-.232-.9V6.551H2.682v3.274c0 .403-.081.704-.244.903a.771.771 0 0 1-.626.3.742.742 0 0 1-.62-.303c-.155-.201-.232-.501-.232-.9v-7.67c0-.398.076-.697.229-.896.153-.2.36-.299.623-.299.26 0 .469.098.63.295.16.197.24.497.24.9Zm10.07 3.636H10.74l-.242 1.367c.401-.213.77-.32 1.11-.32.27 0 .524.05.76.152a1.948 1.948 0 0 1 1.04 1.055c.1.244.151.507.151.788 0 .408-.092.78-.275 1.114-.184.335-.448.6-.794.798a2.374 2.374 0 0 1-1.196.295c-.505 0-.915-.093-1.23-.278-.314-.186-.537-.4-.668-.64s-.197-.45-.197-.63c0-.11.046-.214.138-.313a.452.452 0 0 1 .345-.147c.237 0 .413.136.529.409.113.25.265.445.457.584.192.14.406.21.643.21a.984.984 0 0 0 .572-.17c.163-.112.29-.267.378-.464.09-.197.134-.42.134-.67 0-.27-.048-.501-.144-.692a.998.998 0 0 0-.385-.429 1.044 1.044 0 0 0-.538-.141c-.243 0-.416.03-.52.089-.105.059-.255.162-.451.31-.196.147-.358.221-.485.221a.525.525 0 0 1-.368-.15.454.454 0 0 1-.161-.34c0-.013.015-.109.046-.286l.356-2.021c.04-.242.113-.418.22-.527.107-.11.282-.165.525-.165h2.235c.44 0 .66.167.66.502a.44.44 0 0 1-.16.354c-.108.09-.266.135-.475.135Z"/>
</svg>
