<svg width="14" height="12" xmlns="http://www.w3.org/2000/svg" viewBox="0 0 14 12">
  <path fill-rule="evenodd" clip-rule="evenodd" d="M2.682 2.155v2.79h3.716v-2.79c0-.398.078-.697.235-.896A.747.747 0 0 1 7.25.96c.26 0 .469.098.63.296.16.197.24.496.24.9v7.67c0 .402-.081.703-.244.902a.771.771 0 0 1-.626.3.742.742 0 0 1-.62-.303c-.155-.201-.232-.501-.232-.9V6.551H2.682v3.274c0 .403-.081.704-.244.903a.771.771 0 0 1-.626.3.742.742 0 0 1-.62-.303c-.155-.201-.232-.501-.232-.9v-7.67c0-.398.076-.697.229-.896.153-.2.36-.299.623-.299.26 0 .469.098.63.296.16.197.24.496.24.9Zm8.705 4.754c.28 0 .522-.082.724-.245.203-.163.304-.398.304-.704a.838.838 0 0 0-.242-.601c-.162-.168-.38-.252-.654-.252-.185 0-.339.026-.459.077a.738.738 0 0 0-.286.204c-.07.085-.136.194-.198.327-.063.133-.12.259-.172.377a.32.32 0 0 1-.164.15.651.651 0 0 1-.274.054.475.475 0 0 1-.336-.147.52.52 0 0 1-.154-.393c0-.157.048-.323.144-.497.096-.174.237-.34.42-.497.185-.157.415-.284.689-.379.274-.095.58-.143.918-.143.296 0 .566.04.81.12.243.08.455.196.635.348a1.5 1.5 0 0 1 .406.526c.092.2.138.415.138.645 0 .302-.067.562-.2.778a2.633 2.633 0 0 1-.568.633c.237.128.438.273.6.436.164.164.286.344.369.543.082.198.123.412.123.642 0 .275-.056.542-.167.799a2.038 2.038 0 0 1-.491.688 2.346 2.346 0 0 1-.77.472 2.74 2.74 0 0 1-.985.17c-.366 0-.693-.065-.983-.195a2.263 2.263 0 0 1-.715-.488 2.221 2.221 0 0 1-.425-.606c-.096-.209-.144-.381-.144-.518 0-.175.057-.317.171-.424a.6.6 0 0 1 .428-.161c.085 0 .167.025.247.075.079.05.13.11.155.179.158.42.328.733.51.937.18.205.436.307.765.307a1.157 1.157 0 0 0 .98-.55 1.16 1.16 0 0 0 .172-.63c0-.355-.098-.632-.293-.833-.195-.202-.466-.302-.813-.302a3.34 3.34 0 0 0-.284.018c-.128.012-.21.018-.246.018-.168 0-.297-.042-.389-.125a.446.446 0 0 1-.137-.347c0-.145.055-.263.165-.352.11-.09.272-.134.489-.134h.187Z"/>
</svg>
