<svg fill="none" xmlns="http://www.w3.org/2000/svg" viewBox="0 0 14 12">
  <path fill-rule="evenodd" clip-rule="evenodd" d="M2.402 2.155v2.79h3.716v-2.79c0-.398.078-.697.235-.896A.747.747 0 0 1 6.97.96c.26 0 .469.098.63.295.16.197.24.497.24.9v7.67c0 .403-.081.704-.244.903a.771.771 0 0 1-.626.3.742.742 0 0 1-.62-.303c-.155-.201-.232-.501-.232-.9V6.551H2.402v3.274c0 .403-.081.704-.244.903a.771.771 0 0 1-.626.3.742.742 0 0 1-.62-.303c-.155-.201-.232-.501-.232-.9v-7.67c0-.398.076-.697.229-.896.153-.2.36-.299.623-.299.26 0 .469.098.63.295.16.197.24.497.24.9Zm9.346 8.24v-.788H9.609c-.27 0-.472-.06-.607-.182a.634.634 0 0 1-.172-.659.845.845 0 0 1 .09-.174c.039-.06.08-.12.123-.176L9.2 8.21l2.258-3.005c.148-.198.27-.342.364-.43a.484.484 0 0 1 .343-.134c.432 0 .648.246.648.737v3.281h.183c.218 0 .394.03.526.089.132.06.198.19.198.39 0 .164-.054.283-.162.358-.108.075-.27.112-.486.112h-.26v.789c0 .217-.048.38-.144.485a.499.499 0 0 1-.388.159.494.494 0 0 1-.385-.163c-.098-.109-.147-.27-.147-.481ZM9.916 8.659h1.832V6.195L9.916 8.658Z" fill="#000"/>
</svg>
