<svg xmlns="http://www.w3.org/2000/svg" viewBox="0 0 14 12">
  <path fill-rule="evenodd" clip-rule="evenodd" d="M2.392 2.155v2.79H6.09v-2.79c0-.398.077-.697.233-.896.156-.2.36-.299.614-.299.258 0 .466.098.626.295.16.197.24.497.24.9v7.67c0 .403-.082.704-.243.903a.766.766 0 0 1-.623.3.737.737 0 0 1-.617-.303c-.154-.201-.23-.501-.23-.9V6.551H2.392v3.274c0 .403-.08.704-.242.903a.766.766 0 0 1-.622.3.737.737 0 0 1-.617-.303c-.154-.201-.231-.501-.231-.9v-7.67c0-.398.076-.697.228-.896a.738.738 0 0 1 .62-.299c.257 0 .466.098.625.295.16.197.24.497.24.9Zm9.615 8.177v-3.98c-.817.568-1.367.853-1.65.853a.512.512 0 0 1-.36-.147.451.451 0 0 1-.157-.339c0-.149.051-.258.154-.328.103-.07.285-.16.546-.271.39-.166.7-.341.934-.525.233-.184.44-.39.62-.616.18-.228.298-.368.352-.42.055-.053.158-.079.31-.079.17 0 .306.06.41.18.102.119.154.284.154.493v5.008c0 .586-.22.879-.661.879a.638.638 0 0 1-.473-.18c-.12-.119-.179-.295-.179-.528Z"/>
</svg>
