<svg width="14" height="12" xmlns="http://www.w3.org/2000/svg" viewBox="0 0 14 12">
  <path fill-rule="evenodd" clip-rule="evenodd" d="M2.602 2.155v2.79h3.716v-2.79c0-.398.078-.697.235-.896A.747.747 0 0 1 7.17.96c.26 0 .469.098.63.296.16.197.24.496.24.9v7.67c0 .402-.081.703-.244.902a.771.771 0 0 1-.626.3.742.742 0 0 1-.62-.303c-.155-.201-.232-.501-.232-.9V6.551H2.602v3.274c0 .403-.081.704-.244.903a.771.771 0 0 1-.626.3.742.742 0 0 1-.62-.303c-.155-.201-.232-.501-.232-.9v-7.67c0-.398.076-.697.229-.896.153-.2.36-.299.623-.299.26 0 .469.098.63.296.16.197.24.496.24.9Zm8.3 7.669h2.34c.234 0 .411.048.534.143a.467.467 0 0 1 .184.39c0 .146-.049.27-.146.37-.097.102-.244.153-.441.153h-3.3c-.224 0-.4-.062-.525-.186a.593.593 0 0 1-.188-.436c0-.107.04-.25.12-.427.082-.178.17-.317.265-.419.398-.411.757-.764 1.077-1.058.32-.294.548-.487.685-.58.245-.172.45-.346.612-.52.163-.175.287-.354.373-.538.085-.183.127-.363.127-.539a.947.947 0 0 0-.509-.864 1.076 1.076 0 0 0-.513-.125c-.391 0-.7.172-.923.515-.03.045-.08.167-.15.367-.07.2-.15.353-.238.46-.088.108-.218.162-.388.162a.505.505 0 0 1-.372-.148.544.544 0 0 1-.148-.403c0-.205.046-.42.139-.644.092-.224.23-.426.415-.608.183-.182.416-.33.699-.441.282-.112.613-.168.993-.168.457 0 .847.072 1.17.215.21.095.393.226.552.394.158.167.281.36.37.579.088.22.132.447.132.682 0 .37-.092.707-.276 1.01a3.14 3.14 0 0 1-.563.71c-.19.172-.511.442-.961.808-.45.367-.759.652-.926.855-.072.08-.145.178-.22.291Z"/>
</svg>
